<svg width="100" height="100" viewBox="0 0 100 100" fill="none" xmlns="http://www.w3.org/2000/svg">
<path d="M51.5299 74.0064L8.5131 98.4295L6.15974 96.8519L28.5161 72.2471C29.8847 72.8135 31.4487 72.9253 32.9075 72.561C34.3662 72.1967 35.6167 71.382 36.4183 70.2736C37.22 69.1651 37.5162 67.8412 37.2501 66.5565C36.984 65.2718 36.1743 64.1169 34.9768 63.314C33.7792 62.5111 32.2784 62.1168 30.7629 62.2071C29.2474 62.2973 27.8242 62.8656 26.767 63.8028C25.7099 64.7399 25.0935 65.9797 25.0363 67.2837C24.979 68.5877 25.4851 69.8638 26.4571 70.8666L4.10116 95.4718L1.7478 93.8942L18.8806 52.1179L45.2612 34.0247L65.556 47.6314L51.5299 74.0064Z" fill="#626060"/>
<path d="M61.3586 1.72021L98.1273 26.3702L75.3993 51.3843L38.6306 26.7343L61.3586 1.72021Z" fill="#626060"/>
</svg>
