<svg width="25" height="25" viewBox="0 0 25 25" fill="none" xmlns="http://www.w3.org/2000/svg">
<g clip-path="url(#clip0_118_22)">
<path d="M2.74638 11.8536H13.7398C14.2129 11.8536 14.5965 12.1431 14.5965 12.5002C14.5965 12.8575 14.2129 13.147 13.7398 13.147H2.74693L6.33718 16.2201C6.64914 16.4866 6.6162 16.8937 6.2634 17.1293C5.91034 17.3651 5.37108 17.3403 5.05885 17.0738L0.213961 12.9268C-0.0759487 12.6794 -0.068327 12.3106 0.216955 12.0703L5.05913 7.92643C5.37108 7.65971 5.91061 7.63489 6.26368 7.87089C6.61647 8.10649 6.64941 8.51379 6.33745 8.78032L2.74638 11.8536ZM5.71598 4.73043C5.71598 5.08769 5.32862 5.3772 4.85088 5.3772C4.37287 5.3772 3.98551 5.08769 3.98551 4.73043V1.83289C3.98551 1.32935 4.26235 0.870768 4.70633 0.53894C5.15086 0.206909 5.76443 0.000204086 6.43762 0.000204086H22.5476C23.2213 0.000204086 23.8352 0.206503 24.2797 0.538534C24.7234 0.870157 25 1.32812 25 1.83289V23.1671C25 23.6717 24.7242 24.13 24.2803 24.4621C23.8363 24.7939 23.223 25 22.5476 25H6.43789C5.76307 25 5.15004 24.7933 4.70606 24.4617C4.26153 24.1294 3.98578 23.6705 3.98578 23.1671V20.2698C3.98578 19.9127 4.37314 19.6232 4.85115 19.6232C5.32889 19.6232 5.71625 19.9127 5.71625 20.2698V23.1671C5.71625 23.314 5.79819 23.4489 5.92994 23.5474C6.06115 23.6454 6.24136 23.7067 6.43817 23.7067H22.5476C22.7452 23.7067 22.9257 23.6456 23.0567 23.5476C23.1881 23.4497 23.2695 23.3148 23.2695 23.1671V1.83289C23.2695 1.68559 23.1876 1.55111 23.0564 1.45304C22.9246 1.35457 22.7442 1.29333 22.5476 1.29333H6.43789C6.2419 1.29333 6.06197 1.35478 5.93021 1.45325C5.79819 1.55172 5.71598 1.6864 5.71598 1.83289V4.73043Z" fill="black"/>
</g>
<defs>
<clipPath id="clip0_118_22">
<rect width="25" height="25" fill="white" transform="matrix(-1 0 0 -1 25 25)"/>
</clipPath>
</defs>
</svg>
