<svg width="100" height="100" viewBox="0 0 100 100" fill="none" xmlns="http://www.w3.org/2000/svg">
<path d="M66.9062 22.4583H16.625V82.5312H66.9062V22.4583Z" fill="#626060"/>
<path d="M66.9062 75.3125H19.375V80.0938H66.9062V75.3125Z" fill="#626060"/>
<path d="M66.9062 17.6354H16.625V77.7083H66.9062V17.6354Z" fill="#626060"/>
<path d="M23.8229 17.6354H16.625V77.7083H23.8229V17.6354Z" fill="#626060"/>
<path d="M55.375 42.0833H33.3437C32.3333 42.0833 31.5104 41.2604 31.5104 40.25V28.3958C31.5104 27.3854 32.3333 26.5625 33.3437 26.5625H55.375C56.3854 26.5625 57.2083 27.3854 57.2083 28.3958V40.2396C57.2083 41.2604 56.3854 42.0833 55.375 42.0833Z" fill="#626060"/>
<path d="M56.25 62.3438H32.4583V64.6354H56.25V62.3438Z" fill="#626060"/>
<path d="M56.25 68.6979H32.4583V70.9895H56.25V68.6979Z" fill="#626060"/>
<path d="M19.375 77.7083H16.625V80.1249H19.375V77.7083Z" fill="#626060"/>
<path d="M69.9688 21.8125H66.9062V30.8958H69.9688V21.8125Z" fill="#626060"/>
<path d="M78.1355 80.4167C78.1355 80.4167 75.9896 73.9167 75.9896 70.0521C75.9896 66.1875 81.2396 66.375 81.2396 70.0521C81.2396 73.7292 79.0938 80.4167 79.0938 80.4167C78.9375 81.125 78.2813 81.125 78.1355 80.4167Z" fill="#626060"/>
<path d="M78.6146 34.125C77.8854 34.125 77.2917 33.5417 77.2917 32.8125V28.5625C77.2917 27.8438 77.875 27.25 78.6042 27.25H78.6146C79.3334 27.25 79.9271 27.8333 79.9271 28.5625V32.8125C79.9271 33.5312 79.3334 34.125 78.6146 34.125Z" fill="#626060"/>
<path d="M81.2292 30.9271H75.9792V70.0521H81.2292V30.9271Z" fill="#626060"/>
<path d="M75.9792 35.0416H82.9167V53.302" stroke="#626060" stroke-width="13.8824" stroke-miterlimit="10"/>
<path d="M78.7708 54.8646C78.1354 54.8646 77.625 54.3542 77.625 53.7188V39.8333C77.625 39.1979 78.1354 38.6875 78.7708 38.6875C79.4063 38.6875 79.9167 39.1979 79.9167 39.8333V53.7188C79.9271 54.3438 79.4063 54.8646 78.7708 54.8646Z" fill="#626060"/>
<path d="M77.9271 79.7709C78.0521 80.1771 78.1355 80.4167 78.1355 80.4167C78.2813 81.1355 78.948 81.1355 79.0938 80.4167C79.0938 80.4167 79.1667 80.1771 79.2917 79.7709H77.9271Z" fill="#626060"/>
</svg>
